<?xml version="1.0" encoding="UTF-8" standalone="no"?>
<!DOCTYPE svg PUBLIC "-//W3C//DTD SVG 1.1//EN" "http://www.w3.org/Graphics/SVG/1.1/DTD/svg11.dtd">
<svg width="100%" height="100%" viewBox="0 0 456 456" version="1.1" xmlns="http://www.w3.org/2000/svg" xmlns:xlink="http://www.w3.org/1999/xlink" xml:space="preserve" xmlns:serif="http://www.serif.com/" style="fill-rule:evenodd;clip-rule:evenodd;stroke-linejoin:round;stroke-miterlimit:2;">
    <g transform="matrix(1,0,0,1,-14,-12.81)">
        <path d="M469.56,213.53C468.08,204.2 463.02,201.52 450.79,197.62C441.51,194.64 379.32,174.83 379.32,174.83C379.32,174.83 335.97,158.45 303.84,181.61C299.52,184.74 295.03,188.29 290.53,192.08C294.31,187.58 297.87,183.09 300.98,178.77C324.07,146.59 307.63,103.27 307.63,103.27C307.63,103.27 287.72,41.14 284.71,31.83C280.78,19.63 278.11,14.56 268.77,13.11C259.41,11.63 255.32,15.61 247.83,26.03C242.12,33.94 204.06,86.97 204.06,86.97C204.06,86.97 175.12,123.13 187.19,160.85C188.83,165.91 190.82,171.28 193.05,176.74C189.92,171.74 186.75,166.98 183.59,162.69C160.12,130.8 113.86,133.03 113.86,133.03C113.86,133.03 48.6,132.77 38.84,132.76C26.01,132.71 20.38,133.71 16.08,142.13C11.79,150.55 14.33,155.7 21.91,166.03C27.67,173.91 66.35,226.48 66.35,226.48C66.35,226.48 91.79,265.2 131.38,265.36C136.7,265.39 142.4,265.14 148.26,264.72C142.57,266.14 137.07,267.7 132.02,269.36C94.43,281.82 82.28,326.53 82.28,326.53C82.28,326.53 61.86,388.52 58.82,397.8C54.84,409.98 54.03,415.64 60.72,422.31C67.41,429.01 73.08,428.18 85.25,424.16C94.52,421.13 156.49,400.58 156.49,400.58C156.49,400.58 201.15,388.34 213.53,350.73C215.21,345.67 216.73,340.18 218.16,334.51C217.74,340.35 217.52,346.04 217.56,351.36C217.77,390.96 256.54,416.34 256.54,416.34C256.54,416.34 309.18,454.89 317.06,460.65C327.43,468.2 332.56,470.73 340.99,466.43C349.4,462.13 350.38,456.5 350.32,443.66C350.28,433.91 349.89,368.65 349.89,368.65C349.89,368.65 352.07,322.38 320.13,298.97C315.83,295.82 311.08,292.66 306.1,289.56C311.54,291.75 316.89,293.74 321.97,295.33C359.69,307.36 395.82,278.35 395.82,278.35C395.82,278.35 448.76,240.2 456.67,234.48C467.06,226.99 471.04,222.86 469.56,213.53ZM244.76,165.48C251.89,166.59 255.42,181.74 252.63,199.3C249.88,216.86 241.88,230.18 234.75,229.06C227.64,227.93 224.1,212.8 226.86,195.24C229.63,177.69 237.64,164.36 244.76,165.48ZM153.6,212.02C156.85,205.59 172.35,206.93 188.17,214.98C204.02,223.03 214.22,234.78 210.95,241.2C207.68,247.61 192.2,246.3 176.36,238.25C160.52,230.2 150.33,218.45 153.6,212.02ZM201.66,299.59C189.1,312.17 174.79,318.22 169.7,313.13C164.59,308.04 170.64,293.72 183.19,281.14C195.74,268.55 210.05,262.49 215.16,267.58C220.27,272.68 214.23,287.01 201.66,299.59ZM270.82,329.06C264.39,332.33 252.63,322.17 244.56,306.35C236.48,290.51 235.13,275.01 241.56,271.74C247.97,268.47 259.71,278.64 267.8,294.47C275.88,310.29 277.25,325.78 270.82,329.06ZM287.49,255.75C269.94,258.56 254.79,255.04 253.66,247.93C252.53,240.81 265.84,232.77 283.4,229.98C300.94,227.19 316.09,230.69 317.22,237.8C318.35,244.91 305.05,252.96 287.49,255.75Z" style="fill:rgb(35,31,32);fill-rule:nonzero;"/>
    </g>
</svg>
